<?xml version="1.0" standalone="no"?>
<!DOCTYPE svg PUBLIC "-//W3C//DTD SVG 20010904//EN"
 "http://www.w3.org/TR/2001/REC-SVG-20010904/DTD/svg10.dtd">
<svg version="1.0" xmlns="http://www.w3.org/2000/svg"
 width="512.000000pt" height="512.000000pt" viewBox="0 0 512.000000 512.000000"
 preserveAspectRatio="xMidYMid meet">

<g transform="translate(0.000000,512.000000) scale(0.100000,-0.100000)"
fill="#000000" stroke="none">
<path d="M1920 4994 c-151 -41 -272 -178 -287 -326 l-6 -56 -151 -4 c-131 -3
-157 -6 -201 -26 -63 -29 -110 -74 -141 -134 l-24 -47 -292 -3 -293 -3 -70
-34 c-125 -61 -212 -172 -240 -308 -22 -100 -22 -3474 -1 -3574 38 -177 171
-311 344 -348 75 -16 2849 -16 2924 0 71 15 160 61 213 110 37 35 49 40 73 34
25 -5 31 -12 36 -44 7 -48 39 -89 82 -107 21 -9 70 -14 131 -14 150 1 196 29
218 133 3 15 13 30 23 34 9 3 41 16 70 29 l53 23 32 -19 c40 -25 113 -26 147
-4 41 28 150 137 166 166 21 39 18 107 -7 147 l-20 34 24 56 c13 31 27 64 30
74 4 9 14 17 24 17 10 0 37 9 61 20 61 28 81 76 82 198 0 135 -35 194 -124
209 -30 5 -36 11 -51 52 -10 25 -24 56 -32 69 -13 21 -12 27 6 58 14 23 21 53
21 84 0 48 -3 53 -76 135 -42 47 -89 92 -104 100 -40 21 -85 19 -135 -6 l-43
-21 -71 28 c-61 25 -71 33 -77 59 -11 49 -33 85 -67 105 -27 17 -51 20 -145
20 -76 0 -124 -5 -147 -14 l-35 -15 0 574 0 573 41 7 c80 14 199 83 276 160
146 148 204 352 154 547 -30 117 -73 193 -160 279 -100 99 -240 168 -346 169
-23 0 -36 9 -58 40 -38 53 -101 104 -173 137 l-59 28 -297 3 -296 3 -13 32
c-20 48 -87 115 -144 145 -46 24 -62 26 -201 30 l-152 4 -6 50 c-23 170 -151
307 -317 338 -68 13 -103 12 -169 -6z m161 -264 c25 -14 49 -62 49 -99 0 -42
-45 -90 -90 -97 -26 -4 -43 0 -70 18 -85 58 -51 188 50 188 23 0 50 -5 61 -10z
m-980 -558 c4 -68 8 -84 33 -116 15 -21 42 -46 60 -57 30 -18 61 -19 821 -19
890 0 830 -5 888 77 23 32 29 54 34 116 l6 77 257 0 257 0 62 -31 c35 -17 59
-35 54 -39 -4 -3 -29 -14 -55 -24 -119 -44 -248 -161 -305 -277 -115 -233 -73
-498 107 -680 85 -86 191 -146 298 -168 l62 -14 0 -653 c0 -653 0 -653 -21
-665 -17 -9 -25 -7 -43 10 -26 25 -75 36 -112 27 -31 -8 -178 -147 -200 -188
-19 -37 -18 -106 4 -148 17 -35 17 -36 -12 -107 -27 -65 -33 -73 -62 -79 -49
-9 -94 -41 -110 -79 -20 -48 -19 -236 1 -275 20 -39 61 -69 105 -76 34 -6 38
-10 55 -58 10 -28 24 -60 31 -70 11 -16 10 -25 -7 -57 -41 -82 -21 -136 88
-240 l81 -77 -30 -6 c-17 -3 -661 -6 -1433 -6 -1527 0 -1452 -3 -1537 56 -22
15 -53 47 -69 70 -63 91 -60 -10 -57 1895 l3 1734 28 57 c33 66 100 130 160
152 33 11 99 15 298 15 l257 1 3 -78z m2876 -384 c22 -23 26 -38 24 -72 -1
-23 -253 -281 -295 -303 -40 -21 -71 -5 -150 77 -55 57 -66 74 -66 102 0 39
20 63 62 73 22 6 34 0 71 -34 24 -23 47 -41 50 -41 2 0 40 37 83 81 133 138
179 162 221 117z m185 -2415 c111 -44 193 -130 228 -242 25 -80 25 -151 0
-233 -78 -255 -377 -360 -593 -209 -196 137 -223 420 -55 590 51 51 115 90
177 108 60 17 183 10 243 -14z"/>
<path d="M1285 3683 c-91 -48 -129 -145 -96 -245 15 -47 78 -104 130 -118 27
-7 264 -10 748 -8 687 3 709 4 742 23 19 11 48 37 64 58 26 31 32 49 35 101 6
90 -26 149 -100 187 -36 18 -70 19 -765 19 -645 -1 -731 -3 -758 -17z"/>
<path d="M815 2978 c-50 -17 -92 -55 -114 -102 -21 -42 -22 -56 -19 -283 l3
-240 28 -42 c20 -31 44 -50 83 -68 53 -24 57 -24 283 -21 l229 3 44 30 c24 17
54 51 68 75 24 43 25 54 28 242 5 246 -4 293 -61 353 -26 27 -57 47 -82 54
-51 14 -449 13 -490 -1z m427 -235 c34 -31 22 -60 -59 -145 -89 -92 -147 -138
-175 -138 -11 0 -46 28 -78 63 -64 67 -75 103 -43 139 25 27 63 22 100 -14
l33 -32 73 72 c77 77 111 90 149 55z"/>
<path d="M1795 2845 c-30 -30 -32 -64 -4 -99 l20 -26 773 0 773 0 21 23 c31
33 29 80 -4 106 -26 21 -33 21 -791 21 l-764 0 -24 -25z"/>
<path d="M1790 2470 c-28 -28 -26 -75 5 -106 l25 -25 474 3 c521 3 499 1 512
63 4 22 0 38 -16 58 l-21 27 -480 0 c-466 0 -480 -1 -499 -20z"/>
<path d="M827 2076 c-54 -15 -100 -54 -128 -108 -17 -33 -19 -60 -19 -263 0
-241 5 -272 53 -324 50 -55 82 -61 330 -61 255 0 273 4 335 74 45 52 55 115
51 346 l-4 197 -30 49 c-20 31 -47 58 -75 74 -44 24 -52 25 -255 27 -150 2
-224 -1 -258 -11z m413 -226 c40 -40 28 -65 -88 -181 -134 -136 -146 -139
-228 -51 -58 62 -69 99 -37 134 23 25 59 22 99 -9 l35 -26 77 76 c82 82 107
92 142 57z"/>
<path d="M1813 1955 c-59 -25 -58 -106 2 -131 51 -21 1489 -21 1540 0 61 26
61 106 0 132 -50 21 -1494 20 -1542 -1z"/>
<path d="M1813 1590 c-44 -18 -57 -86 -23 -120 19 -19 33 -20 499 -20 l480 0
21 27 c16 20 20 36 16 58 -13 62 8 60 -504 62 -257 1 -477 -2 -489 -7z"/>
<path d="M795 1131 c-48 -22 -79 -54 -100 -103 -12 -30 -15 -82 -15 -262 0
-124 4 -236 10 -250 5 -14 26 -43 46 -66 58 -64 103 -72 352 -68 199 3 209 4
252 28 28 16 55 43 75 74 l30 49 3 198 c4 231 -5 293 -50 345 -62 70 -80 74
-335 74 -200 0 -233 -3 -268 -19z m445 -221 c26 -26 25 -63 -2 -93 -81 -85
-197 -187 -221 -193 -26 -6 -35 0 -88 55 -48 50 -59 69 -59 95 0 64 68 81 120
31 l30 -29 79 77 c83 82 107 91 141 57z"/>
<path d="M1792 1007 c-29 -31 -28 -72 3 -102 l24 -25 555 0 c391 0 562 3 580
11 51 23 55 103 7 128 -13 8 -205 11 -584 11 l-564 0 -21 -23z"/>
<path d="M1814 646 c-48 -21 -59 -75 -25 -117 l19 -24 461 -3 c510 -3 523 -2
535 55 11 47 -8 80 -51 92 -61 17 -900 14 -939 -3z"/>
</g>
</svg>
